<?xml version="1.0"?>
<svg xmlns="http://www.w3.org/2000/svg" viewBox="0 0 64 64" width="512px" height="512px"><g id="Outline"><g><path d="M57.441,48.667c-.369-.131-.733-.274-1.093-.425a1,1,0,0,0-.774,1.844c.394.166.793.322,1.2.465a4.877,4.877,0,0,1,2.984,3.07,4.846,4.846,0,0,1-4.861,2.524L51.285,55.7A35.184,35.184,0,0,1,36.2,50.123,1,1,0,1,0,35.1,51.789a37.171,37.171,0,0,0,15.946,5.9l3.608.444a7.006,7.006,0,0,0,.851.053,6.818,6.818,0,0,0,4.214-1.469A4.855,4.855,0,0,1,55.134,60H51.5a35.163,35.163,0,0,1-15.652-3.695l-9.431-4.716a1,1,0,1,0-.895,1.789l9.431,4.716A36.923,36.923,0,0,0,39.55,60H5a1,1,0,0,0,0,2H55.134a6.866,6.866,0,0,0,2.307-13.333Z" fill="#D5D5D7"/><path d="M16.168,42.445a1,1,0,0,0,.277,1.387l3,2a1,1,0,1,0,1.11-1.664l-3-2A1,1,0,0,0,16.168,42.445Z" fill="#D5D5D7"/><circle cx="37" cy="35" r="1" fill="#D5D5D7"/><circle cx="38" cy="39" r="1" fill="#D5D5D7"/><circle cx="41" cy="43" r="1" fill="#D5D5D7"/><path d="M32.986,37.169a1,1,0,0,0-.372-.958l-9-7a1,1,0,0,0-1.509,1.236l2.443,4.885-2.791.7a1,1,0,0,0-.33,1.789l10,7A1,1,0,0,0,32.9,43.553L30.41,38.584l1.906-.636A1,1,0,0,0,32.986,37.169Zm-4.881,1.278,1.236,2.471-4.971-3.48,1.873-.468a1,1,0,0,0,.652-1.417L25.866,33.5l4.045,3.147-1.227.409a1,1,0,0,0-.579,1.4Z" fill="#D5D5D7"/><circle cx="44" cy="47" r="1" fill="#D5D5D7"/><path d="M20,8a1,1,0,0,0-1-1H11a1,1,0,0,0,0,2h8A1,1,0,0,0,20,8Z" fill="#D5D5D7"/><path d="M12,13a1,1,0,0,0,0,2h5a1,1,0,0,0,0-2Z" fill="#D5D5D7"/><path d="M5,20a1,1,0,0,0,1,1H16a1,1,0,0,0,0-2H6A1,1,0,0,0,5,20Z" fill="#D5D5D7"/><path d="M11,57H24a1,1,0,0,0,0-2H11a1,1,0,0,0,0,2Z" fill="#D5D5D7"/><path d="M13,50a1,1,0,0,0-1-1H5a1,1,0,0,0,0,2h7A1,1,0,0,0,13,50Z" fill="#D5D5D7"/><path d="M12,28a1,1,0,0,0,0-2H3a1,1,0,0,0,0,2Z" fill="#D5D5D7"/><path d="M10,34a1,1,0,0,0,0-2H4a1,1,0,0,0,0,2Z" fill="#D5D5D7"/><path d="M3,4H22.883l-.908,8.177a1,1,0,0,0,.883,1.1,1.065,1.065,0,0,0,.112.006,1,1,0,0,0,.992-.89L24.994,3.11A1,1,0,0,0,24,2H3A1,1,0,0,0,3,4Z" fill="#D5D5D7"/><path d="M23.515,16.416a1,1,0,1,0-1.987-.221l-.854,7.685a3.048,3.048,0,0,0-.684.078,3.006,3.006,0,0,0-1.916,1.469l-5.94,10.8a9,9,0,0,0,3.86,12.387l5.942,2.971A1,1,0,0,0,22.83,49.8l-5.941-2.971a7,7,0,0,1-3-9.635l.411-.746a8.9,8.9,0,0,0,3.138,3.623l14.577,9.675a1,1,0,1,0,1.106-1.666L18.542,38.4a6.928,6.928,0,0,1-2.951-4.311l4.235-7.7a1,1,0,0,1,1.434-.349,13.556,13.556,0,0,0,15.387-.175,1.69,1.69,0,0,1,.728-.291c.01,0,.021,0,.031,0s.025-.006.038-.006a1.666,1.666,0,0,1,.7.069A1.686,1.686,0,0,1,39.229,26.7L41.3,32.646l-1.539.384A1,1,0,0,0,40,35a1.017,1.017,0,0,0,.243-.03l1.714-.429.574,1.65c.07.2.158.391.233.588l-1,.251A1,1,0,0,0,42,39a1.017,1.017,0,0,0,.243-.03l1.322-.331a23.248,23.248,0,0,0,1.177,2.146l-.983.245A1,1,0,0,0,44,43a1.017,1.017,0,0,0,.243-.03l1.7-.425a23.636,23.636,0,0,0,1.893,2.217l-1.075.268A1,1,0,0,0,47,47a1.017,1.017,0,0,0,.243-.03l2.334-.584a23.113,23.113,0,0,0,2.29,1.728,1,1,0,1,0,1.092-1.676c-.4-.263-.793-.549-1.177-.839a.981.981,0,0,0,.189-.841,1,1,0,0,0-1.212-.728L50.1,44.2a21.6,21.6,0,0,1-2.033-2.181l.18-.045a1,1,0,1,0-.484-1.94l-.989.247a21.514,21.514,0,0,1-1.222-2.134l.7-.173a1,1,0,1,0-.484-1.94l-1.04.26c-.1-.252-.21-.5-.3-.755L43.9,34.054l.338-.084a1,1,0,1,0-.484-1.94l-.514.129-2.127-6.114a3.67,3.67,0,0,0-2.355-2.306c-.033-.01-.067-.01-.1-.02L43.968,3.251a1,1,0,0,0-1.936-.5L36.594,23.727a3.693,3.693,0,0,0-1.093.5,11.565,11.565,0,0,1-12.887.3Z" fill="#D5D5D7"/></g></g></svg>
