<?xml version="1.0"?>
<svg xmlns="http://www.w3.org/2000/svg" id="Capa_1" enable-background="new 0 0 505.374 505.374" height="512px" viewBox="0 0 505.374 505.374" width="512px"><g><path d="m253.059 185.58c0 12.064 1.719 23.996 5.108 35.461 1.175 3.972 5.348 6.24 9.318 5.066 3.973-1.174 6.24-5.346 5.066-9.319-2.981-10.085-4.493-20.585-4.493-31.209 0-60.595 49.298-109.894 109.894-109.894s109.894 49.298 109.894 109.894c0 57.677-45.028 105.841-102.512 109.65-4.133.274-7.262 3.846-6.987 7.979.263 3.965 3.56 7.004 7.476 7.004.167 0 .335-.006.504-.017 65.338-4.329 116.52-59.067 116.52-124.617 0-68.866-56.027-124.894-124.894-124.894s-124.894 56.029-124.894 124.896z" fill="#D5D5D7"/><path d="m377.952 277.339c50.597 0 91.76-41.163 91.76-91.759s-41.163-91.76-91.76-91.76c-36.961 0-70.146 21.997-84.545 56.04-1.614 3.815.171 8.216 3.985 9.829 3.813 1.613 8.216-.17 9.829-3.986 12.047-28.481 39.81-46.884 70.73-46.884 42.325 0 76.76 34.434 76.76 76.76 0 42.325-34.435 76.759-76.76 76.759-4.143 0-7.5 3.358-7.5 7.5s3.359 7.501 7.501 7.501z" fill="#D5D5D7"/><path d="m344.22 52.33h67.465c4.143 0 7.5-3.358 7.5-7.5v-36.527c0-4.142-3.357-7.5-7.5-7.5h-67.465c-4.143 0-7.5 3.358-7.5 7.5v36.527c0 4.142 3.357 7.5 7.5 7.5zm7.5-36.527h52.465v21.527h-52.465z" fill="#D5D5D7"/><path d="m261.921 102.56c1.465 1.465 3.384 2.197 5.304 2.197 1.919 0 3.839-.732 5.304-2.197 2.929-2.929 2.929-7.677 0-10.606l-13.911-13.911 11.799-11.798 13.91 13.911c2.93 2.929 7.678 2.929 10.607 0s2.929-7.677 0-10.606l-19.214-19.215c-2.929-2.928-7.677-2.929-10.607 0l-22.405 22.405c-1.406 1.407-2.196 3.314-2.196 5.303s.79 3.897 2.196 5.303z" fill="#D5D5D7"/><path d="m377.952 193.08c4.143 0 7.5-3.358 7.5-7.5v-41.992c0-4.142-3.357-7.5-7.5-7.5s-7.5 3.358-7.5 7.5v41.992c0 4.142 3.358 7.5 7.5 7.5z" fill="#D5D5D7"/><path d="m503.633 501.534c.063-.085.131-.167.191-.255.073-.107.136-.221.204-.332.057-.095.119-.187.173-.284.06-.109.11-.224.164-.337.051-.106.107-.209.153-.317.047-.11.084-.225.126-.338.043-.116.09-.23.128-.349.035-.112.06-.229.09-.343.032-.125.07-.247.096-.374.024-.116.037-.236.056-.354.021-.129.046-.257.059-.389.012-.118.013-.238.02-.357.007-.128.021-.254.022-.384l.259-40.611c.006-.893-.156-1.767-.454-2.591-1.278-22.385-9.596-40.714-24.82-54.525-31.436-28.518-82.754-28.95-100.247-28.176l-6.379-18.634 5.143-1.886c3.889-1.426 5.886-5.734 4.46-9.624-1.427-3.889-5.734-5.885-9.624-4.459l-4.839 1.774-5.737-16.758 4.895-1.795c3.889-1.426 5.886-5.734 4.46-9.624-1.427-3.889-5.734-5.885-9.624-4.459l-4.59 1.683-5.737-16.758 4.645-1.703c3.889-1.426 5.886-5.734 4.46-9.624-1.427-3.889-5.735-5.885-9.624-4.459l-4.34 1.591-5.737-16.758 4.396-1.612c3.889-1.426 5.886-5.734 4.46-9.624-1.426-3.889-5.735-5.885-9.624-4.459l-4.091 1.5-10.231-29.888c-1.342-3.919-5.604-6.008-9.524-4.667-1.865.639-3.309 1.943-4.173 3.554-.247.252-.485.516-.701.808-11.929 16.181-29.444 26.749-49.321 29.757-19.879 3.006-39.735-1.906-55.917-13.835-16.182-11.928-26.749-29.445-29.757-49.321-3.007-19.877 1.906-39.735 13.835-55.917 2.328-3.159 1.828-7.578-1.146-10.136-2.975-2.558-7.419-2.393-10.194.383l-135.5 135.5c-2.92 2.921-2.93 7.653-.021 10.585l25.403 25.605c1.466 1.478 3.395 2.218 5.324 2.218 1.909 0 3.819-.725 5.282-2.176 2.94-2.917 2.959-7.666.042-10.606l-20.142-20.302 17.883-17.883 54.682 55.114-9.445 9.445c-2.929 2.929-2.929 7.678.001 10.607 1.464 1.464 3.384 2.197 5.303 2.197s3.839-.732 5.304-2.197l9.402-9.403 8.361 8.427-4.37 4.37c-2.929 2.929-2.929 7.677 0 10.606 1.465 1.465 3.385 2.197 5.304 2.197s3.839-.732 5.304-2.197l4.327-4.327 136.614 137.695c1.408 1.419 3.325 2.218 5.324 2.218h43.43v15.611c0 4.142 3.357 7.5 7.5 7.5s7.5-3.358 7.5-7.5v-15.611h25.003v10.611c0 4.142 3.357 7.5 7.5 7.5s7.5-3.358 7.5-7.5v-10.611h20.997v5.611c0 4.142 3.357 7.5 7.5 7.5s7.5-3.358 7.5-7.5v-5.611h21v2.611c0 4.142 3.357 7.5 7.5 7.5s7.5-3.358 7.5-7.5v-2.611h15.604v25.611h-199.375l-189.096-190.595c-2.918-2.94-7.667-2.959-10.606-.042-2.94 2.917-2.959 7.666-.042 10.606l178.615 180.03h-77.598c-4.143 0-7.5 3.358-7.5 7.5s3.357 7.5 7.5 7.5h95.604 210.001.001c.258 0 .513-.013.764-.039.084-.009.166-.026.249-.038.166-.022.332-.042.494-.075.107-.022.209-.054.314-.081.134-.034.271-.063.402-.103.13-.04.254-.092.38-.138.102-.038.207-.07.306-.112.142-.06.278-.131.416-.199.079-.039.161-.073.238-.115.14-.076.274-.162.408-.247.069-.043.141-.081.208-.127.127-.086.247-.181.369-.274.069-.053.142-.101.208-.156.113-.093.218-.195.326-.294.069-.063.141-.122.207-.188.1-.099.19-.206.284-.31.066-.074.137-.144.2-.22.087-.103.163-.213.243-.321zm-238.513-241.608c5.75-.87 11.33-2.28 16.696-4.172l7.083 25.076c-36.803 21.157-50.394 49.587-55.254 70.156-.189.803-.368 1.602-.535 2.393-9.949-31.987-9.788-54.191-7.233-68.277 2.471-13.628 7.49-21.72 10.395-25.456 9.416 1.615 19.127 1.75 28.848.28zm-102.748-75.743c3.606 23.838 16.28 44.845 35.688 59.151 7.09 5.226 14.772 9.316 22.825 12.243-8.968 14.704-20.029 47.048-1.171 105.2l-78.883-79.507c12.405-14.753 19.17-33.193 19.17-52.688 0-19.381-6.691-37.733-18.962-52.442l21.752-21.752c-1.772 9.709-1.938 19.749-.419 29.795zm-31.996 2.62c9.47 11.834 14.625 26.41 14.625 41.779 0 15.462-5.213 30.111-14.79 41.985l-41.634-41.964zm116.425 201.276c-.791-4.831-2.317-18.252 1.597-34.288 5.858-23.994 20.886-43.483 44.715-58.042l7.969 28.214c.934 3.305 3.941 5.463 7.214 5.463.675 0 1.361-.092 2.043-.284 3.985-1.126 6.305-5.27 5.179-9.256l-10.568-37.417c-.003-.011-.006-.022-.009-.033l-9.301-32.929c7.771-4.335 14.872-9.825 21.101-16.344l6.001 17.531-11.823 4.335c-3.889 1.426-5.886 5.734-4.46 9.624 1.114 3.037 3.985 4.92 7.043 4.92.857 0 1.729-.148 2.581-.46l11.518-4.223 5.737 16.758-11.574 4.244c-3.889 1.426-5.886 5.734-4.46 9.624 1.114 3.037 3.985 4.92 7.043 4.92.857 0 1.729-.148 2.581-.46l11.269-4.132 5.737 16.758-11.324 4.152c-3.889 1.426-5.886 5.734-4.46 9.624 1.114 3.037 3.985 4.92 7.043 4.92.857 0 1.729-.148 2.581-.46l11.019-4.04 5.737 16.758-11.075 4.061c-3.889 1.426-5.886 5.734-4.46 9.624 1.114 3.037 3.985 4.92 7.043 4.92.857 0 1.729-.148 2.581-.46l10.771-3.949 4.732 13.823h-21.261c-7.504 0-14.168-5.043-16.207-12.264l-3.635-12.868c-1.126-3.986-5.269-6.306-9.257-5.179-3.985 1.126-6.305 5.27-5.179 9.256l3.635 12.867c3.855 13.652 16.456 23.187 30.643 23.187 0 0 32.208-.014 32.434-.034.015-.001.03.001.045 0 .616-.06 62.145-5.595 94.719 23.997 10.846 9.854 17.333 22.748 19.363 38.427l-182.215.001z" fill="#D5D5D7"/><path d="m329.139 179.986c4.096-.623 6.91-4.448 6.287-8.543-.624-4.096-4.464-6.91-8.543-6.286-27.234 4.144-38.792 19.268-43.691 31.225-5.237 12.779-3.948 24.611-3.891 25.108.441 3.823 3.684 6.641 7.44 6.641.287 0 .578-.017.87-.05 4.114-.475 7.065-4.196 6.59-8.311-.159-1.383-3.469-33.939 34.938-39.784z" fill="#D5D5D7"/><path d="m7.5 129.072h128.511c4.143 0 7.5-3.358 7.5-7.5s-3.357-7.5-7.5-7.5h-128.511c-4.143 0-7.5 3.358-7.5 7.5s3.357 7.5 7.5 7.5z" fill="#D5D5D7"/><path d="m99.511 152.562c0-4.142-3.357-7.5-7.5-7.5h-84.511c-4.143 0-7.5 3.358-7.5 7.5s3.357 7.5 7.5 7.5h84.511c4.142 0 7.5-3.358 7.5-7.5z" fill="#D5D5D7"/><path d="m211.511 458.562c0-4.142-3.357-7.5-7.5-7.5h-104c-4.143 0-7.5 3.358-7.5 7.5s3.357 7.5 7.5 7.5h104c4.142 0 7.5-3.358 7.5-7.5z" fill="#D5D5D7"/></g></svg>
