<?xml version="1.0" encoding="iso-8859-1"?>
<!-- Generator: Adobe Illustrator 19.0.0, SVG Export Plug-In . SVG Version: 6.00 Build 0)  -->
<svg xmlns="http://www.w3.org/2000/svg" xmlns:xlink="http://www.w3.org/1999/xlink" version="1.1" id="Capa_1" x="0px" y="0px" viewBox="0 0 480.036 480.036" style="enable-background:new 0 0 480.036 480.036;" xml:space="preserve" width="512px" height="512px">
<g>
	<g>
		<g>
			<path d="M272.015,448c97.202,0,176-78.798,176-176s-78.798-176-176-176s-176,78.798-176,176     C96.125,369.156,174.858,447.89,272.015,448z M136.015,264h-23.592c4.17-81.933,69.659-147.422,151.592-151.592V136     c0,4.418,3.582,8,8,8s8-3.582,8-8v-23.592c81.933,4.17,147.422,69.659,151.592,151.592h-31.592c-4.418,0-8,3.582-8,8s3.582,8,8,8     h31.592c-4.17,81.932-69.659,147.422-151.592,151.592V408c0-4.418-3.582-8-8-8s-8,3.582-8,8v23.592     c-81.932-4.17-147.422-69.659-151.592-151.592h23.592c4.418,0,8-3.582,8-8S140.433,264,136.015,264z" fill="#D5D5D7"/>
			<path d="M452.135,168.138c-2.385-4.132-4.912-8.18-7.576-12.138l19.752-19.752c3.123-3.124,3.123-8.188,0-11.312l-45.2-45.2     c-3.124-3.123-8.188-3.123-11.312,0l-19.784,19.72c-32.002-21.606-69.414-33.819-108-35.256V16h56c4.418,0,8-3.582,8-8     s-3.582-8-8-8h-128c-4.418,0-8,3.582-8,8s3.582,8,8,8h56v48.272c-71.348,2.724-136.3,41.894-172,103.728h-44     c-4.418,0-8,3.582-8,8s3.582,8,8,8h48c0.208,0,0.384-0.104,0.592-0.12c2.883,0.037,5.557-1.495,6.984-4     c50.899-93.024,167.571-127.174,260.596-76.276S491.36,271.176,440.462,364.2c-50.899,93.024-167.571,127.174-260.596,76.276     c-32.192-17.614-58.662-44.084-76.276-76.276c-1.413-2.515-4.083-4.063-6.968-4.04c-0.208,0-0.392-0.12-0.608-0.12h-48     c-4.418,0-8,3.582-8,8s3.582,8,8,8h44c57.411,99.444,184.567,133.52,284.011,76.109     C475.47,394.738,509.545,267.582,452.135,168.138z M401.088,109.07l12.366-12.366l33.888,33.888l-12.384,12.384     C424.998,130.42,413.634,119.044,401.088,109.07z" fill="#D5D5D7"/>
			<path d="M80.015,272c0-4.418-3.582-8-8-8h-64c-4.418,0-8,3.582-8,8s3.582,8,8,8h64C76.433,280,80.015,276.418,80.015,272z" fill="#D5D5D7"/>
			<path d="M24.015,232h56c4.418,0,8-3.582,8-8s-3.582-8-8-8h-56c-4.418,0-8,3.582-8,8S19.596,232,24.015,232z" fill="#D5D5D7"/>
			<path d="M88.015,320c0-4.418-3.582-8-8-8h-56c-4.418,0-8,3.582-8,8s3.582,8,8,8h56C84.433,328,88.015,324.418,88.015,320z" fill="#D5D5D7"/>
			<path d="M250.359,325.656c3.124,3.123,8.188,3.123,11.312,0l111.2-111.2c3.07-3.178,2.982-8.242-0.196-11.312     c-3.1-2.994-8.015-2.994-11.116,0L256.015,308.688l-47.6-47.6c-3.178-3.069-8.243-2.982-11.312,0.196     c-2.994,3.1-2.994,8.015,0,11.116L250.359,325.656z" fill="#D5D5D7"/>
		</g>
	</g>
</g>
<g>
</g>
<g>
</g>
<g>
</g>
<g>
</g>
<g>
</g>
<g>
</g>
<g>
</g>
<g>
</g>
<g>
</g>
<g>
</g>
<g>
</g>
<g>
</g>
<g>
</g>
<g>
</g>
<g>
</g>
</svg>
