<?xml version="1.0"?>
<svg xmlns="http://www.w3.org/2000/svg" height="512px" viewBox="-73 0 512 512" width="512px"><path d="m103 106c5.519531 0 10-4.480469 10-10 0-5.445312-4.425781-10-10-10-5.519531 0-10 4.480469-10 10 0 5.5625 4.539062 10 10 10zm0 0" fill="#FFFFFF"/><path d="m183 512c3.082031 0 5.992188-1.421875 7.890625-3.855469 7.148437-9.179687 175.109375-225.925781 175.109375-322.144531 0-97.34375-81.574219-186-183-186-101.324219 0-183 88.546875-183 186 0 96.21875 167.960938 312.964844 175.109375 322.144531 1.898437 2.433594 4.808594 3.855469 7.890625 3.855469zm-163-326c0-88.429688 76.167969-166 163-166s163 77.570312 163 166c0 74.410156-118.148438 240.070312-163 299.515625-45.175781-59.863281-163-225.292969-163-299.515625zm0 0" fill="#FFFFFF"/><path d="m313 186c0-71.683594-58.316406-130-130-130-17.066406 0-32.828125 3.125-49.605469 9.835938-5.125 2.050781-7.621093 7.871093-5.570312 13 2.054687 5.125 7.871093 7.621093 13 5.570312 14.53125-5.8125 27.539062-8.40625 42.175781-8.40625 60.652344 0 110 49.347656 110 110s-49.347656 110-110 110-110-49.347656-110-110c0-18.824219 4.722656-36.898438 14.03125-53.730469 2.671875-4.832031.921875-10.914062-3.910156-13.589843-4.832032-2.671876-10.917969-.921876-13.589844 3.910156-10.96875 19.824218-16.53125 41.160156-16.53125 63.410156 0 71.683594 58.316406 130 130 130s130-58.316406 130-130zm0 0" fill="#FFFFFF"/><path d="m183 236c-5.519531 0-10 4.480469-10 10s4.480469 10 10 10 10-4.480469 10-10-4.480469-10-10-10zm0 0" fill="#FFFFFF"/><path d="m194.105469 197.996094c.632812-1.035156 2.597656-2.402344 5.082031-4.128906 2.691406-1.871094 6.039062-4.199219 9.988281-7.617188 8.785157-7.609375 13.824219-18.636719 13.824219-30.25 0-22.054688-17.945312-40-40-40-22.097656 0-40 17.898438-40 40 0 5.523438 4.476562 10 10 10s10-4.476562 10-10c0-11.046875 8.953125-20 20-20 11.027344 0 20 8.972656 20 20 0 5.808594-2.519531 11.324219-6.914062 15.128906-3.148438 2.722656-5.890626 4.632813-8.3125 6.316406-9.191407 6.390626-14.773438 11.5-14.773438 28.554688 0 5.523438 4.476562 10 10 10s10-4.476562 10-10c0-5.117188.601562-7.175781 1.105469-8.003906zm0 0" fill="#FFFFFF"/></svg>
